<svg width="49" height="13" viewBox="0 0 49 13" fill="none" xmlns="http://www.w3.org/2000/svg">
<path d="M4.4751 10.3403C3.56527 10.3403 2.77393 10.1436 2.10107 9.75C1.43245 9.35645 0.914062 8.8042 0.545898 8.09326C0.181966 7.37809 0 6.54232 0 5.58594C0 4.64225 0.17985 3.81706 0.539551 3.11035C0.899251 2.40365 1.41341 1.85352 2.08203 1.45996C2.75065 1.06641 3.54622 0.869629 4.46875 0.869629C5.50553 0.869629 6.38574 1.12988 7.10938 1.65039C7.83724 2.16667 8.31543 2.91569 8.54395 3.89746L6.55078 4.36084C6.42383 3.74723 6.17627 3.28809 5.80811 2.9834C5.44417 2.67871 4.99561 2.52637 4.4624 2.52637C3.95036 2.52637 3.51449 2.65332 3.15479 2.90723C2.79932 3.16113 2.52637 3.51872 2.33594 3.97998C2.14974 4.43701 2.05664 4.97868 2.05664 5.60498C2.05664 6.23128 2.15186 6.77718 2.34229 7.24268C2.53271 7.70394 2.80566 8.06152 3.16113 8.31543C3.5166 8.5651 3.94189 8.68994 4.43701 8.68994C4.97021 8.68994 5.41878 8.5376 5.78271 8.23291C6.14665 7.92822 6.39421 7.4987 6.52539 6.94434L8.56299 7.35693C8.31755 8.31331 7.83301 9.04964 7.10938 9.56592C6.38574 10.0822 5.50765 10.3403 4.4751 10.3403ZM9.43922 10.1753V3.31982H11.2673V4.8623L11.1912 4.65918C11.407 4.15137 11.7117 3.77474 12.1052 3.5293C12.4988 3.27962 12.9283 3.15479 13.3938 3.15479C13.525 3.15479 13.6583 3.16536 13.7937 3.18652C13.9291 3.20768 14.0645 3.24365 14.2 3.29443L14.054 4.90674C13.7789 4.83057 13.5144 4.79248 13.2605 4.79248C13.0532 4.79248 12.8352 4.82845 12.6067 4.90039C12.3824 4.97233 12.1729 5.09928 11.9783 5.28125C11.7879 5.45898 11.6313 5.71289 11.5086 6.04297C11.3901 6.36882 11.3308 6.78564 11.3308 7.29346V10.1753H9.43922ZM15.7363 12.6509V11.2671H16.8853C16.9784 11.2671 17.0461 11.248 17.0884 11.21C17.1349 11.1719 17.1773 11.1021 17.2154 11.0005L17.5645 10.042L17.4566 10.7275L14.4732 3.31982H16.5869L18.3579 8.85498L18.1738 8.82959L19.9385 3.31982H22.0459L18.8594 11.521C18.6944 11.9442 18.4637 12.2383 18.1675 12.4033C17.8713 12.5684 17.5243 12.6509 17.1265 12.6509H15.7363ZM22.7317 12.6509V3.31982H24.5218V4.69727L24.5027 4.5957C24.7397 4.09635 25.055 3.73242 25.4485 3.50391C25.8463 3.27116 26.2906 3.15479 26.7815 3.15479C27.357 3.15479 27.8543 3.29867 28.2732 3.58643C28.6964 3.86995 29.0222 4.28255 29.2508 4.82422C29.4793 5.36165 29.5935 6.007 29.5935 6.76025C29.5935 7.51351 29.4772 8.15885 29.2444 8.69629C29.0159 9.22949 28.6879 9.63786 28.2605 9.92139C27.8373 10.2007 27.3338 10.3403 26.7498 10.3403C26.242 10.3403 25.7892 10.224 25.3914 9.99121C24.9978 9.75423 24.6783 9.37126 24.4329 8.84229L24.6106 8.82959V12.6509H22.7317ZM26.0769 8.91211C26.5382 8.91211 26.9064 8.71956 27.1814 8.33447C27.4565 7.94515 27.594 7.40771 27.594 6.72217C27.594 6.04508 27.4586 5.52035 27.1878 5.14795C26.9212 4.77132 26.5551 4.58301 26.0896 4.58301C25.7976 4.58301 25.5332 4.6613 25.2962 4.81787C25.0634 4.97445 24.8772 5.21354 24.7376 5.53516C24.6022 5.85254 24.5345 6.25244 24.5345 6.73486C24.5345 7.4585 24.6826 8.00228 24.9788 8.36621C25.275 8.73014 25.6411 8.91211 26.0769 8.91211ZM32.5835 10.1753C32.0757 10.1753 31.6843 10.0526 31.4092 9.80713C31.1384 9.55745 31.003 9.19987 31.003 8.73438V4.70361H30.0254V3.31982H31.003V1.97412L32.8946 1.51709V3.31982H34.1641V4.70361H32.8946V8.43604C32.8946 8.57568 32.9136 8.6709 32.9517 8.72168C32.994 8.76823 33.0808 8.7915 33.212 8.7915H34.2593V10.1753H32.5835ZM35.3196 10.1753V3.31982H37.2112V10.1753H35.3196ZM36.2654 2.50098C35.8888 2.50098 35.5862 2.38672 35.3577 2.1582C35.1292 1.92969 35.0149 1.62712 35.0149 1.25049C35.0149 0.869629 35.1292 0.567057 35.3577 0.342773C35.5862 0.114258 35.8888 0 36.2654 0C36.6463 0 36.9489 0.114258 37.1731 0.342773C37.4017 0.567057 37.5159 0.869629 37.5159 1.25049C37.5159 1.62712 37.4017 1.92969 37.1731 2.1582C36.9489 2.38672 36.6463 2.50098 36.2654 2.50098ZM37.3257 10.1753L41.4962 5.49072L39.1983 1.03467H41.3819L42.8736 4.29736L45.6221 1.03467H48.1612L44.0035 5.63037L46.3331 10.1753H44.1177L42.626 6.8999L39.8902 10.1753H37.3257Z" fill="white"/>
</svg>
